<svg width="120" height="120" viewBox="0 0 120 120" fill="none" xmlns="http://www.w3.org/2000/svg">
    <g id="Group 14029">

        <g id="Group">
            <g id="Group_2">
                <path id="Vector"
                    d="M60.1541 76.152C69.0758 76.152 76.3082 68.9195 76.3082 59.9979C76.3082 51.0762 69.0758 43.8438 60.1541 43.8438C51.2324 43.8438 44 51.0762 44 59.9979C44 68.9195 51.2324 76.152 60.1541 76.152Z"
                    stroke="#E63330" stroke-width="4" stroke-linecap="round" stroke-linejoin="round" />
                <path id="Vector_2"
                    d="M69.3876 46.7541V34.6155C69.3876 33.3914 68.9013 32.2174 68.0358 31.3518C67.1702 30.4863 65.9963 30 64.7722 30H55.5412C54.3171 30 53.1432 30.4863 52.2776 31.3518C51.4121 32.2174 50.9258 33.3914 50.9258 34.6155V46.7541"
                    stroke="#E63330" stroke-width="4" stroke-linecap="round" stroke-linejoin="round" />
                <path id="Vector_3"
                    d="M69.3876 73.248V85.3867C69.3876 86.6108 68.9013 87.7848 68.0358 88.6503C67.1702 89.5159 65.9963 90.0022 64.7722 90.0022H55.5412C54.3171 90.0022 53.1432 89.5159 52.2776 88.6503C51.4121 87.7848 50.9258 86.6108 50.9258 85.3867V73.248"
                    stroke="#E63330" stroke-width="4" stroke-linecap="round" stroke-linejoin="round" />
            </g>
        </g>
    </g>
</svg>