<svg width="120" height="120" viewBox="0 0 120 120" fill="none" xmlns="http://www.w3.org/2000/svg">
    <g id="Group 14011">
        <g id="Group">
            <g id="Group_2">
                <path id="Vector"
                    d="M89.1031 46.7246H31.4041C30.0764 46.7246 29 47.801 29 49.1287V87.5947C29 88.9225 30.0764 89.9988 31.4041 89.9988H89.1031C90.4308 89.9988 91.5072 88.9225 91.5072 87.5947V49.1287C91.5072 47.801 90.4308 46.7246 89.1031 46.7246Z"
                    fill="none" stroke="#E63330" stroke-width="4" stroke-linecap="round" stroke-linejoin="round" />
                <path id="Vector_2"
                    d="M47.0298 70.7667C50.3492 70.7667 53.0401 68.0758 53.0401 64.7564C53.0401 61.437 50.3492 58.7461 47.0298 58.7461C43.7104 58.7461 41.0195 61.437 41.0195 64.7564C41.0195 68.0758 43.7104 70.7667 47.0298 70.7667Z"
                    fill="none" stroke="#E63330" stroke-width="4" stroke-linecap="round" stroke-linejoin="round" />
                <g id="Vector_3">
                    <path
                        d="M44.627 89.9984L67.2257 70.7654C67.8616 70.2185 68.5997 69.803 69.3972 69.543C70.1946 69.283 71.0357 69.1837 71.8718 69.2508C72.7079 69.3179 73.5225 69.55 74.2683 69.9338C75.0141 70.3175 75.6765 70.8454 76.2171 71.4867L90.9785 89.181"
                        fill="none" />
                    <path
                        d="M44.627 89.9984L67.2257 70.7654C67.8616 70.2185 68.5997 69.803 69.3972 69.543C70.1946 69.283 71.0357 69.1837 71.8718 69.2508C72.7079 69.3179 73.5225 69.55 74.2683 69.9338C75.0141 70.3175 75.6765 70.8454 76.2171 71.4867L90.9785 89.181"
                        stroke="#E63330" stroke-width="4" stroke-linecap="round" stroke-linejoin="round" />
                </g>
                <g id="Vector_4">
                    <path
                        d="M43.4238 46.7258L56.6465 31.6279C57.0977 31.1163 57.6526 30.7065 58.2744 30.4258C58.8962 30.1452 59.5705 30 60.2527 30C60.9349 30 61.6092 30.1452 62.231 30.4258C62.8527 30.7065 63.4077 31.1163 63.8589 31.6279L77.0816 46.7258"
                        fill="none" />
                    <path
                        d="M43.4238 46.7258L56.6465 31.6279C57.0977 31.1163 57.6526 30.7065 58.2744 30.4258C58.8962 30.1452 59.5705 30 60.2527 30C60.9349 30 61.6092 30.1452 62.231 30.4258C62.8527 30.7065 63.4077 31.1163 63.8589 31.6279L77.0816 46.7258"
                        stroke="#E63330" stroke-width="4" stroke-linecap="round" stroke-linejoin="round" />
                </g>
            </g>
        </g>
    </g>
</svg>