<svg width="120" height="120" viewBox="0 0 120 120" fill="none" xmlns="http://www.w3.org/2000/svg">
    <g id="Group 14010">
        <g id="Group">
            <path id="Vector"
                d="M79.5413 30.0547H39.6769C38.7578 30.0799 37.8576 30.3211 37.049 30.7587C36.2405 31.1963 35.5462 31.818 35.0224 32.5736L25.0563 46.3728C24.3163 47.4186 23.9467 48.6815 24.0062 49.9612C24.0657 51.241 24.5509 52.4641 25.3849 53.4367L55.2831 87.88C55.795 88.5395 56.4509 89.0733 57.2007 89.4405C57.9504 89.8076 58.7742 89.9985 59.6091 89.9985C60.4439 89.9985 61.2677 89.8076 62.0175 89.4405C62.7673 89.0733 63.4232 88.5395 63.935 87.88L93.8333 53.4367C94.6672 52.4641 95.1524 51.241 95.212 49.9612C95.2715 48.6815 94.9019 47.4186 94.1619 46.3728L84.1958 32.5736C83.672 31.818 82.9777 31.1963 82.1691 30.7587C81.3606 30.3211 80.4603 30.0799 79.5413 30.0547Z"
                fill="none" stroke="#E63330" stroke-width="4" stroke-linecap="round" stroke-linejoin="round" />
            <g id="Vector_2">
                <path d="M56.7615 30L43.4004 50.6988L59.609 89.8513" fill="none" />
                <path d="M56.7615 30L43.4004 50.6988L59.609 89.8513" stroke="#E63330" stroke-width="4"
                    stroke-linecap="round" stroke-linejoin="round" />
            </g>
            <g id="Vector_3">
                <path d="M62.6211 30L75.9275 50.6988L59.6094 89.8513" fill="none" />
                <path d="M62.6211 30L75.9275 50.6988L59.6094 89.8513" stroke="#E63330" stroke-width="4"
                    stroke-linecap="round" stroke-linejoin="round" />
            </g>
            <path id="Vector_4" d="M24.125 50.7012H95.0924" stroke="#E63330" stroke-width="4" stroke-linecap="round"
                stroke-linejoin="round" />
        </g>
    </g>
</svg>